<svg version="1.1" id="Layer_1" xmlns="http://www.w3.org/2000/svg" xmlns:xlink="http://www.w3.org/1999/xlink" x="0px" y="0px"
	 width="100%" viewBox="0 0 500 500" enable-background="new 0 0 500 500" xml:space="preserve">
<path fill="#00BF63" opacity="1.000000" stroke="none" 
	d="
M283.000000,501.000000 
	C188.666687,501.000000 94.833382,501.000000 1.000050,501.000000 
	C1.000034,334.333405 1.000034,167.666794 1.000017,1.000140 
	C167.666565,1.000093 334.333130,1.000093 500.999756,1.000047 
	C500.999847,167.666519 500.999847,334.333038 500.999939,500.999786 
	C428.500000,501.000000 356.000000,501.000000 283.000000,501.000000 
M435.019958,283.465088 
	C452.912994,238.114792 448.613159,194.995193 420.919281,154.846634 
	C402.549805,128.215836 375.942200,112.064621 346.106018,101.467628 
	C295.298523,83.422180 243.279449,81.088425 190.605850,92.032158 
	C134.969254,103.591507 92.430283,134.209732 65.756401,183.946838 
	C37.565613,236.512421 34.548378,290.418243 67.968254,342.710022 
	C85.427521,370.028412 107.907837,392.516815 136.426971,408.519196 
	C137.441574,409.088501 138.595520,409.409454 140.636993,410.228119 
	C126.314796,389.051727 121.024384,366.100739 118.001549,341.575958 
	C123.574471,343.716400 128.461868,345.648132 133.387589,347.476593 
	C166.722061,359.850586 200.609390,369.842041 236.441833,371.568817 
	C259.671509,372.688232 282.705719,370.452118 305.680725,367.518280 
	C319.199341,365.791992 332.970947,364.723022 346.064880,361.239105 
	C387.978088,350.087219 417.158844,323.643341 435.019958,283.465088 
M448.103943,173.860352 
	C438.646118,137.373734 402.963776,108.712364 384.432983,105.369896 
	C413.150146,121.107147 434.333313,143.640015 447.031342,173.926590 
	C447.143707,174.194717 447.761292,174.251038 448.103943,173.860352 
M204.232300,377.534393 
	C197.351532,376.356750 190.418396,375.419495 183.604584,373.934631 
	C176.639511,372.416840 169.757278,370.480682 162.902130,368.507538 
	C156.463776,366.654358 150.108185,364.513580 143.716171,362.499329 
	C143.600525,362.945526 143.484863,363.391724 143.369217,363.837921 
	C168.716431,376.207062 195.387360,382.108459 223.650787,380.534271 
	C222.078171,381.058655 220.567459,380.918884 219.147247,380.483734 
	C218.194473,380.191772 217.418427,379.154205 216.479599,379.015106 
	C212.702728,378.455505 208.893250,378.115784 204.232300,377.534393 
M140.777664,361.920654 
	C140.610764,361.954956 140.443863,361.989258 140.276978,362.023560 
	C140.376297,361.921265 140.475601,361.819000 140.777664,361.920654 
z"/>
<path fill="#FEFEFE" opacity="1.000000" stroke="none" 
	d="
M434.892822,283.826843 
	C417.158844,323.643341 387.978088,350.087219 346.064880,361.239105 
	C332.970947,364.723022 319.199341,365.791992 305.680725,367.518280 
	C282.705719,370.452118 259.671509,372.688232 236.441833,371.568817 
	C200.609390,369.842041 166.722061,359.850586 133.387589,347.476593 
	C128.461868,345.648132 123.574471,343.716400 118.001549,341.575958 
	C121.024384,366.100739 126.314796,389.051727 140.636993,410.228119 
	C138.595520,409.409454 137.441574,409.088501 136.426971,408.519196 
	C107.907837,392.516815 85.427521,370.028412 67.968254,342.710022 
	C34.548378,290.418243 37.565613,236.512421 65.756401,183.946838 
	C92.430283,134.209732 134.969254,103.591507 190.605850,92.032158 
	C243.279449,81.088425 295.298523,83.422180 346.106018,101.467628 
	C375.942200,112.064621 402.549805,128.215836 420.919281,154.846634 
	C448.613159,194.995193 452.912994,238.114792 434.892822,283.826843 
M156.852264,186.521317 
	C156.890182,209.006805 156.632126,231.497849 157.053284,253.976166 
	C157.437088,274.460297 168.838547,288.959839 188.014847,293.491394 
	C194.405167,295.001495 201.229019,295.504456 207.807327,295.248901 
	C236.722702,294.125366 251.603043,279.430176 252.324341,250.600174 
	C252.928223,226.463608 252.463715,202.300842 252.530945,178.149826 
	C252.541397,174.394485 251.037231,172.712051 247.145981,172.805496 
	C240.154388,172.973389 233.155807,172.835495 226.160233,172.857468 
	C220.124603,172.876404 219.746643,173.257385 219.742142,179.485336 
	C219.727448,199.806000 219.800583,220.127029 219.683395,240.447021 
	C219.657608,244.921051 219.410217,249.478058 218.516052,253.843491 
	C217.105515,260.729950 213.256531,263.034546 204.684692,263.041931 
	C195.964111,263.049438 192.298996,260.898743 190.862320,253.938263 
	C189.963562,249.583893 189.783295,245.025589 189.758224,240.556107 
	C189.647049,220.735764 189.710159,200.914444 189.706879,181.093475 
	C189.705536,172.982605 189.581558,172.857483 181.730042,172.852676 
	C177.732529,172.850220 173.734894,172.830124 169.737549,172.856216 
	C155.197998,172.951157 156.953461,171.192764 156.852264,186.521317 
M319.986053,264.500000 
	C319.986053,243.882416 319.986053,223.264832 319.986053,202.385330 
	C327.629028,202.385330 334.779938,202.345490 341.930054,202.403503 
	C345.111755,202.429337 347.035797,201.329727 347.011353,197.819275 
	C346.963837,190.991394 347.001221,184.162949 346.992188,177.334747 
	C346.988098,174.227631 345.383636,172.852798 342.309875,172.855362 
	C316.495911,172.876999 290.681885,172.882263 264.867981,172.845978 
	C261.474060,172.841202 260.042755,174.448944 260.065826,177.733276 
	C260.107941,183.728470 260.061798,189.724243 260.079071,195.719681 
	C260.096619,201.806198 260.616486,202.355225 266.552582,202.383453 
	C273.296570,202.415527 280.040833,202.390854 287.087158,202.390854 
	C287.087158,204.864700 287.087189,206.675552 287.087189,208.486404 
	C287.087189,234.633469 287.162933,260.780975 287.016327,286.927216 
	C286.990356,291.557526 288.355255,293.678131 293.273834,293.487610 
	C300.258118,293.217133 307.264343,293.281555 314.254150,293.467163 
	C318.617310,293.583038 320.163605,291.734344 320.043243,287.481903 
	C319.835999,280.159912 319.985992,272.827850 319.986053,264.500000 
M134.032242,122.551369 
	C123.139328,129.774643 113.327522,138.132889 105.989349,149.134293 
	C121.356308,135.549301 137.175110,122.664551 155.610214,113.287018 
	C147.739151,114.223495 141.205841,118.244621 134.032242,122.551369 
z"/>
<path fill="#E9F9F1" opacity="1.000000" stroke="none" 
	d="
M448.123474,174.133301 
	C447.761292,174.251038 447.143707,174.194717 447.031342,173.926590 
	C434.333313,143.640015 413.150146,121.107147 384.432983,105.369896 
	C402.963776,108.712364 438.646118,137.373734 448.123474,174.133301 
z"/>
<path fill="#E8F9F1" opacity="1.000000" stroke="none" 
	d="
M204.664062,377.614624 
	C208.893250,378.115784 212.702728,378.455505 216.479599,379.015106 
	C217.418427,379.154205 218.194473,380.191772 219.147247,380.483734 
	C220.567459,380.918884 222.078171,381.058655 223.650787,380.534271 
	C195.387360,382.108459 168.716431,376.207062 143.369217,363.837921 
	C143.484863,363.391724 143.600525,362.945526 143.716171,362.499329 
	C150.108185,364.513580 156.463776,366.654358 162.902130,368.507538 
	C169.757278,370.480682 176.639511,372.416840 183.604584,373.934631 
	C190.418396,375.419495 197.351532,376.356750 204.664062,377.614624 
z"/>
<path fill="#E8F9F1" opacity="1.000000" stroke="none" 
	d="
M140.676285,361.818665 
	C140.475601,361.819000 140.376297,361.921265 140.276978,362.023560 
	C140.443863,361.989258 140.610764,361.954956 140.676285,361.818665 
z"/>
<path fill="#16345D" opacity="1.000000" stroke="none" 
	d="
M156.852264,186.026840 
	C156.953461,171.192764 155.197998,172.951157 169.737549,172.856216 
	C173.734894,172.830124 177.732529,172.850220 181.730042,172.852676 
	C189.581558,172.857483 189.705536,172.982605 189.706879,181.093475 
	C189.710159,200.914444 189.647049,220.735764 189.758224,240.556107 
	C189.783295,245.025589 189.963562,249.583893 190.862320,253.938263 
	C192.298996,260.898743 195.964111,263.049438 204.684692,263.041931 
	C213.256531,263.034546 217.105515,260.729950 218.516052,253.843491 
	C219.410217,249.478058 219.657608,244.921051 219.683395,240.447021 
	C219.800583,220.127029 219.727448,199.806000 219.742142,179.485336 
	C219.746643,173.257385 220.124603,172.876404 226.160233,172.857468 
	C233.155807,172.835495 240.154388,172.973389 247.145981,172.805496 
	C251.037231,172.712051 252.541397,174.394485 252.530945,178.149826 
	C252.463715,202.300842 252.928223,226.463608 252.324341,250.600174 
	C251.603043,279.430176 236.722702,294.125366 207.807327,295.248901 
	C201.229019,295.504456 194.405167,295.001495 188.014847,293.491394 
	C168.838547,288.959839 157.437088,274.460297 157.053284,253.976166 
	C156.632126,231.497849 156.890182,209.006805 156.852264,186.026840 
M163.769012,232.499878 
	C163.850143,240.329315 163.628510,248.176071 164.075485,255.984558 
	C165.001984,272.169434 173.624802,283.740845 188.608093,286.531830 
	C197.921417,288.266663 207.930984,288.597748 217.291626,287.239777 
	C234.703217,284.713837 244.307175,274.117554 244.959396,256.407074 
	C245.884567,231.284348 245.439178,206.111115 245.554947,180.959320 
	C245.556229,180.679993 245.228500,180.399155 245.063858,180.134308 
	C238.969559,180.134308 232.897461,180.134308 226.629318,180.134308 
	C226.629318,198.318085 226.675842,216.137497 226.601532,233.956390 
	C226.578644,239.447739 226.511765,244.966278 225.966446,250.422531 
	C224.728775,262.806274 217.781219,269.467285 206.078949,269.940704 
	C193.112808,270.465240 186.019150,265.017639 183.630569,252.295349 
	C182.930084,248.564392 182.847488,244.679901 182.831467,240.864304 
	C182.753815,222.369751 182.795166,203.874695 182.794373,185.379807 
	C182.794296,183.609390 182.794357,181.838989 182.794357,180.154633 
	C176.062256,180.154633 169.997314,180.154633 163.768997,180.154633 
	C163.768997,197.526443 163.768997,214.513153 163.769012,232.499878 
z"/>
<path fill="#12315A" opacity="1.000000" stroke="none" 
	d="
M319.986053,265.000000 
	C319.985992,272.827850 319.835999,280.159912 320.043243,287.481903 
	C320.163605,291.734344 318.617310,293.583038 314.254150,293.467163 
	C307.264343,293.281555 300.258118,293.217133 293.273834,293.487610 
	C288.355255,293.678131 286.990356,291.557526 287.016327,286.927216 
	C287.162933,260.780975 287.087189,234.633469 287.087189,208.486404 
	C287.087189,206.675552 287.087158,204.864700 287.087158,202.390854 
	C280.040833,202.390854 273.296570,202.415527 266.552582,202.383453 
	C260.616486,202.355225 260.096619,201.806198 260.079071,195.719681 
	C260.061798,189.724243 260.107941,183.728470 260.065826,177.733276 
	C260.042755,174.448944 261.474060,172.841202 264.867981,172.845978 
	C290.681885,172.882263 316.495911,172.876999 342.309875,172.855362 
	C345.383636,172.852798 346.988098,174.227631 346.992188,177.334747 
	C347.001221,184.162949 346.963837,190.991394 347.011353,197.819275 
	C347.035797,201.329727 345.111755,202.429337 341.930054,202.403503 
	C334.779938,202.345490 327.629028,202.385330 319.986053,202.385330 
	C319.986053,223.264832 319.986053,243.882416 319.986053,265.000000 
M313.038330,210.519104 
	C313.038361,207.686325 313.233765,204.836945 312.994629,202.024506 
	C312.591827,197.286865 314.484192,195.349686 319.302795,195.527771 
	C326.086121,195.778427 332.885651,195.591156 339.698151,195.591156 
	C339.698151,190.000031 339.698151,184.942902 339.698151,179.953690 
	C315.386871,179.953690 291.435822,179.953690 267.339355,179.953690 
	C267.339355,185.188477 267.339355,190.224014 267.339355,195.590759 
	C273.975861,195.590759 280.285309,195.581650 286.594696,195.593185 
	C293.649445,195.606110 294.024139,195.968384 294.025482,202.838104 
	C294.030579,228.832626 294.027527,254.827133 294.027527,280.821655 
	C294.027527,282.598846 294.027527,284.376068 294.027527,286.278198 
	C300.629028,286.278198 306.704315,286.278198 313.038330,286.278198 
	C313.038330,261.149017 313.038330,236.331024 313.038330,210.519104 
z"/>
<path fill="#244167" opacity="1.000000" stroke="none" 
	d="
M134.320023,122.330811 
	C141.205841,118.244621 147.739151,114.223495 155.610214,113.287018 
	C137.175110,122.664551 121.356308,135.549301 105.989349,149.134293 
	C113.327522,138.132889 123.139328,129.774643 134.320023,122.330811 
z"/>
<path fill="#FBFCFC" opacity="1.000000" stroke="none" 
	d="
M163.769012,231.999878 
	C163.768997,214.513153 163.768997,197.526443 163.768997,180.154633 
	C169.997314,180.154633 176.062256,180.154633 182.794357,180.154633 
	C182.794357,181.838989 182.794296,183.609390 182.794373,185.379807 
	C182.795166,203.874695 182.753815,222.369751 182.831467,240.864304 
	C182.847488,244.679901 182.930084,248.564392 183.630569,252.295349 
	C186.019150,265.017639 193.112808,270.465240 206.078949,269.940704 
	C217.781219,269.467285 224.728775,262.806274 225.966446,250.422531 
	C226.511765,244.966278 226.578644,239.447739 226.601532,233.956390 
	C226.675842,216.137497 226.629318,198.318085 226.629318,180.134308 
	C232.897461,180.134308 238.969559,180.134308 245.063858,180.134308 
	C245.228500,180.399155 245.556229,180.679993 245.554947,180.959320 
	C245.439178,206.111115 245.884567,231.284348 244.959396,256.407074 
	C244.307175,274.117554 234.703217,284.713837 217.291626,287.239777 
	C207.930984,288.597748 197.921417,288.266663 188.608093,286.531830 
	C173.624802,283.740845 165.001984,272.169434 164.075485,255.984558 
	C163.628510,248.176071 163.850143,240.329315 163.769012,231.999878 
z"/>
<path fill="#FCFCFD" opacity="1.000000" stroke="none" 
	d="
M313.038330,211.016068 
	C313.038330,236.331024 313.038330,261.149017 313.038330,286.278198 
	C306.704315,286.278198 300.629028,286.278198 294.027527,286.278198 
	C294.027527,284.376068 294.027527,282.598846 294.027527,280.821655 
	C294.027527,254.827133 294.030579,228.832626 294.025482,202.838104 
	C294.024139,195.968384 293.649445,195.606110 286.594696,195.593185 
	C280.285309,195.581650 273.975861,195.590759 267.339355,195.590759 
	C267.339355,190.224014 267.339355,185.188477 267.339355,179.953690 
	C291.435822,179.953690 315.386871,179.953690 339.698151,179.953690 
	C339.698151,184.942902 339.698151,190.000031 339.698151,195.591156 
	C332.885651,195.591156 326.086121,195.778427 319.302795,195.527771 
	C314.484192,195.349686 312.591827,197.286865 312.994629,202.024506 
	C313.233765,204.836945 313.038361,207.686325 313.038330,211.016068 
z"/>
</svg>